HIERARCHY
ROOT Hips
{
  OFFSET 52.1248 91.6466 4.34269
  CHANNELS 6 Xposition Yposition Zposition Zrotation Xrotation Yrotation
  JOINT spine
  {
    OFFSET 0 6.84637 0.3937
    CHANNELS 3 Zrotation Xrotation Yrotation
    JOINT spine1
    {
      OFFSET 0 9.49621 0
      CHANNELS 3 Zrotation Xrotation Yrotation
      JOINT spine2
      {
        OFFSET 0 9.09909 0
        CHANNELS 3 Zrotation Xrotation Yrotation
        JOINT Neck
        {
          OFFSET 0 23.3612 1.11378
          CHANNELS 3 Zrotation Xrotation Yrotation
          JOINT Head
          {
            OFFSET 0 7.05802 0
            CHANNELS 3 Zrotation Xrotation Yrotation
            End Site
            {
              OFFSET 0 17.0844 -5.63419
            }
          }
        }
        JOINT RightShoulder
        {
          OFFSET -3.83136 9.82631 -0.533491
          CHANNELS 3 Zrotation Xrotation Yrotation
          JOINT RightArm
          {
            OFFSET 0 12.8881 0
            CHANNELS 3 Zrotation Xrotation Yrotation
            JOINT RightArmRoll
            {
              OFFSET 0 6.50617 0
              CHANNELS 3 Zrotation Xrotation Yrotation
              JOINT RightForeArm
              {
                OFFSET 0 18.9501 0
                CHANNELS 3 Zrotation Xrotation Yrotation
                JOINT RightForeArmRoll
                {
                  OFFSET 0 7.30092 0
                  CHANNELS 3 Zrotation Xrotation Yrotation
                  JOINT RightHand
                  {
                    OFFSET 0 14.6514 0
                    CHANNELS 3 Zrotation Xrotation Yrotation
                    End Site
                    {
                      OFFSET 0 0 0
                    }
                  }
                }
              }
            }
          }
        }
        JOINT LeftShoulder
        {
          OFFSET 3.83136 9.82631 -0.533491
          CHANNELS 3 Zrotation Xrotation Yrotation
          JOINT LeftArm
          {
            OFFSET 0 12.8881 0
            CHANNELS 3 Zrotation Xrotation Yrotation
            JOINT LeftArmRoll
            {
              OFFSET 0 6.50617 0
              CHANNELS 3 Zrotation Xrotation Yrotation
              JOINT LeftForeArm
              {
                OFFSET 0 18.9501 0
                CHANNELS 3 Zrotation Xrotation Yrotation
                JOINT LeftForeArmRoll
                {
                  OFFSET 0 7.30092 0
                  CHANNELS 3 Zrotation Xrotation Yrotation
                  JOINT LeftHand
                  {
                    OFFSET 0 14.6514 0
                    CHANNELS 3 Zrotation Xrotation Yrotation
                    End Site
                    {
                      OFFSET 0 0 0
                    }
                  }
                }
              }
            }
          }
        }
      }
    }
  }
  JOINT RightUpLeg
  {
    OFFSET -6.06837 -1.11278 -0.933477
    CHANNELS 3 Zrotation Xrotation Yrotation
    JOINT RightUpLegRoll
    {
      OFFSET 0 17.1796 0
      CHANNELS 3 Zrotation Xrotation Yrotation
      JOINT RightLeg
      {
        OFFSET 0 -21.2743 0
        CHANNELS 3 Zrotation Xrotation Yrotation
        JOINT RightLegRoll
        {
          OFFSET 0 21.3439 0
          CHANNELS 3 Zrotation Xrotation Yrotation
          JOINT RightFoot
          {
            OFFSET 0 17.7652 0
            CHANNELS 3 Zrotation Xrotation Yrotation
            JOINT RightToeBase
            {
              OFFSET 0 14.8508 0
              CHANNELS 3 Zrotation Xrotation Yrotation
              End Site
              {
                OFFSET 0.0062947 7.19214 -0.829005
              }
            }
          }
        }
      }
    }
  }
  JOINT LeftUpLeg
  {
    OFFSET 6.06837 -1.11278 -0.933477
    CHANNELS 3 Zrotation Xrotation Yrotation
    JOINT LeftUpLegRoll
    {
      OFFSET 0 17.1797 0
      CHANNELS 3 Zrotation Xrotation Yrotation
      JOINT LeftLeg
      {
        OFFSET 0 21.2742 0
        CHANNELS 3 Zrotation Xrotation Yrotation
        JOINT LeftLegRoll
        {
          OFFSET 0 21.5412 0
          CHANNELS 3 Zrotation Xrotation Yrotation
          JOINT LeftFoot
          {
            OFFSET 0 17.5679 0
            CHANNELS 3 Zrotation Xrotation Yrotation
            JOINT LeftToeBase
            {
              OFFSET 0 14.8508 0
              CHANNELS 3 Zrotation Xrotation Yrotation
              End Site
              {
                OFFSET -0.0282102 7.19213 -0.829005
              }
            }
          }
        }
      }
    }
  }
}
MOTION
Frames: 12
Frame Time: 0.00208333
52.4203 91.6476 5.09072 -1.80781 -0.027002 1.30852 0.355091 -1.88804 0.477824 0.720383 0.229622 0.921111 0.709638 1.87453 0.909343 -18.1428 19.7687 4.79109 17.2058 -3.59408 0.391109 41.2423 5.28196 6.94669 88.879 72.7054 9.60753 -4.59972e-007 -3.53166e-007 -7.5431e-006 5.08691 43.601 -3.54078 3.19413e-006 -3.35533e-006 -3.00135 8.0289 -4.95155 0.697716 -57.2832 -13.6913 8.64264 -109.397 14.3486 27.0952 4.91522e-006 1.65825e-006 2.7095e-006 151.559 76.5248 -138.775 2.70094e-005 -3.93145e-006 3.00006 -8.02896 -4.95146 -0.697707 178.132 3.88793 -1.31394 180 7.0156e-015 178.98 179.509 5.56034 179.841 -4.37229e-006 4.08516e-006 0.0199902 -18.3793 67.5006 19.1468 8.1365 25.2327 -3.48774 -172.126 2.11603 -2.01896 4.54188e-006 -4.6773e-006 -1.08689 -1.98765 -8.0572 0.102211 5.06894e-006 -2.58803e-006 -0.102694 18.7383 68.1083 -19.6144 -8.1365 25.2327 3.48774 
52.4605 91.6494 5.0838 -1.7956 -0.0382603 1.12362 0.347901 -1.8881 0.467589 0.705691 0.229387 0.90134 0.695177 1.87431 0.889812 -17.6494 19.8335 4.7232 16.7092 -3.61015 0.435518 41.6105 5.20252 6.79989 89.1605 72.469 9.01316 -4.59972e-007 -3.53166e-007 -7.5431e-006 5.22402 44.248 -3.63774 3.19413e-006 -3.35533e-006 -3.00134 8.0289 -4.95155 0.697716 -56.8803 -13.7344 8.693 -109.811 15.2303 27.1957 4.91522e-006 1.65825e-006 2.7095e-006 151.366 76.8993 -138.865 2.70094e-005 -3.93145e-006 3.00006 -8.02896 -4.95146 -0.697707 178.099 3.9113 -1.29441 180 7.0156e-015 178.98 179.504 5.56201 179.841 -4.37229e-006 4.08516e-006 0.0199272 -18.3785 67.5 19.1456 8.1365 25.2327 -3.48774 -172.159 2.05987 -2.01317 4.54188e-006 -4.6773e-006 -1.08822 -2.00283 -8.05354 0.101088 5.06894e-006 -2.58803e-006 -0.102235 18.738 68.1074 -19.6138 -8.1365 25.2327 3.48774 
52.4647 91.6521 5.11133 -1.78595 -0.0449205 0.941337 0.339357 -1.88896 0.456871 0.68832 0.227568 0.88074 0.678045 1.87249 0.869495 -17.1023 19.8949 4.63846 16.174 -3.62084 0.477728 42.0066 5.1174 6.64328 89.4066 72.2343 8.42924 -4.59972e-007 -3.53166e-007 -7.5431e-006 5.36574 44.893 -3.73978 3.19413e-006 -3.35533e-006 -3.00133 8.0289 -4.95155 0.697716 -56.4371 -13.7892 8.75398 -110.279 16.1293 27.2919 4.91522e-006 1.65825e-006 2.7095e-006 151.237 77.2863 -139.032 2.70094e-005 -3.93145e-006 3.00006 -8.02896 -4.95146 -0.697707 178.067 3.93943 -1.27457 180 7.0156e-015 178.98 179.497 5.56364 179.842 -4.37229e-006 4.08516e-006 0.0198645 -18.3777 67.4994 19.1442 8.1365 25.2327 -3.48774 -172.192 2.01252 -2.0071 4.54188e-006 -4.6773e-006 -1.08945 -2.0169 -8.05555 0.100252 5.06894e-006 -2.58803e-006 -0.101845 18.7396 68.1087 -19.6152 -8.1365 25.2327 3.48774 
52.4921 91.6828 5.10202 -1.77861 -0.047847 0.761333 0.329727 -1.89044 0.445748 0.6688 0.224478 0.859438 0.658772 1.86941 0.848513 -16.5104 19.953 4.53954 15.6068 -3.62679 0.518038 42.4253 5.02733 6.47855 89.6228 71.9997 7.85445 -4.59972e-007 -3.53166e-007 -7.5431e-006 5.51083 45.5366 -3.84614 3.19413e-006 -3.35533e-006 -3.00132 8.0289 -4.95155 0.697716 -55.9604 -13.8532 8.82343 -110.793 17.0437 27.3835 4.91522e-006 1.65825e-006 2.7095e-006 151.164 77.6861 -139.269 2.70094e-005 -3.93145e-006 3.00006 -8.02896 -4.95146 -0.697707 178.035 3.97137 -1.2547 180 7.0156e-015 178.979 179.488 5.56523 179.843 -4.37229e-006 4.08516e-006 0.0198023 -18.3769 67.4986 19.1425 8.1365 25.2327 -3.48774 -172.223 1.97252 -2.00099 4.54188e-006 -4.6773e-006 -1.09059 -2.03008 -8.06243 0.0996537 5.06894e-006 -2.58803e-006 -0.101521 18.7429 68.1121 -19.6185 -8.1365 25.2327 3.48774 
52.5228 91.6777 5.09393 -1.77334 -0.0479046 0.583287 0.319277 -1.89241 0.434297 0.647661 0.220428 0.837563 0.637886 1.86537 0.826984 -15.8825 20.0084 4.42911 15.0142 -3.62867 0.556743 42.8615 4.93305 6.30743 89.8142 71.7636 7.28774 -4.59972e-007 -3.53166e-007 -7.5431e-006 5.65801 46.1792 -3.95601 3.19413e-006 -3.35533e-006 -3.00131 8.0289 -4.95155 0.697716 -55.457 -13.924 8.89923 -111.346 17.9713 27.4697 4.91522e-006 1.65825e-006 2.7095e-006 151.136 78.099 -139.562 2.70094e-005 -3.93145e-006 3.00006 -8.02896 -4.95146 -0.697707 178.005 4.00618 -1.23503 180 7.0156e-015 178.979 179.478 5.56677 179.843 -4.37229e-006 4.08516e-006 0.0197405 -18.376 67.4978 19.1407 8.1365 25.2327 -3.48774 -172.253 1.93842 -1.99508 4.54188e-006 -4.6773e-006 -1.09166 -2.04257 -8.07339 0.0992476 5.06894e-006 -2.58803e-006 -0.101256 18.7477 68.1172 -19.6233 -8.1365 25.2327 3.48774 
52.5471 91.6569 5.09612 -1.76991 -0.0459584 0.406875 0.308276 -1.89469 0.422595 0.625435 0.215731 0.815241 0.615917 1.86068 0.805027 -15.2277 20.0612 4.30985 14.4029 -3.62714 0.594142 43.3099 4.83531 6.13159 89.9858 71.5245 6.72834 -4.59972e-007 -3.53166e-007 -7.5431e-006 5.80594 46.8215 -4.06857 3.19413e-006 -3.35533e-006 -3.0013 8.0289 -4.95155 0.697716 -54.934 -13.9991 8.97923 -111.928 18.9102 27.5498 4.91522e-006 1.65825e-006 2.7095e-006 151.144 78.5255 -139.901 2.70094e-005 -3.93145e-006 3.00006 -8.02896 -4.95146 -0.697707 177.975 4.04291 -1.21582 180 7.0156e-015 178.979 179.468 5.56829 179.844 -4.37229e-006 4.08516e-006 0.0196791 -18.375 67.497 19.1388 8.1365 25.2327 -3.48774 -172.282 1.90875 -1.98962 4.54188e-006 -4.6773e-006 -1.09267 -2.05461 -8.08763 0.0989864 5.06894e-006 -2.58803e-006 -0.101047 18.7535 68.1236 -19.6293 -8.1365 25.2327 3.48774 
52.5702 91.6655 5.09846 -1.7681 -0.0428737 0.231771 0.29699 -1.89714 0.41072 0.602652 0.2107 0.792602 0.593395 1.85566 0.782761 -14.5548 20.1119 4.18445 13.7795 -3.62285 0.630533 43.7652 4.73486 5.95276 90.1422 71.2808 6.17564 -4.59972e-007 -3.53166e-007 -7.5431e-006 5.95326 47.4639 -4.18295 3.19413e-006 -3.35533e-006 -3.00129 8.0289 -4.95155 0.697716 -54.3981 -14.0761 9.0613 -112.532 19.8584 27.623 4.91522e-006 1.65825e-006 2.7095e-006 151.175 78.9661 -140.272 2.70094e-005 -3.93145e-006 3.00006 -8.02896 -4.95146 -0.697707 177.947 4.08064 -1.19732 180 7.0156e-015 178.979 179.458 5.56977 179.845 -4.37229e-006 4.08516e-006 0.0196183 -18.3741 67.4961 19.1369 8.1365 25.2327 -3.48774 -172.309 1.88205 -1.98484 4.54188e-006 -4.6773e-006 -1.09362 -2.06642 -8.10436 0.0988229 5.06894e-006 -2.58803e-006 -0.100889 18.7603 68.131 -19.6363 -8.1365 25.2327 3.48774 
52.5946 91.6566 5.09669 -1.76772 -0.039516 0.0576528 0.285688 -1.8996 0.398749 0.579844 0.205647 0.769771 0.570851 1.85061 0.760305 -13.8728 20.1609 4.0556 13.1506 -3.61647 0.666214 44.2223 4.63245 5.77261 90.288 71.0309 5.62929 -4.59972e-007 -3.53166e-007 -7.5431e-006 6.09851 48.107 -4.29825 3.19413e-006 -3.35533e-006 -3.00128 8.0289 -4.95155 0.697716 -53.8564 -14.1526 9.14326 -113.149 20.8139 27.6884 4.91522e-006 1.65825e-006 2.7095e-006 151.215 79.4212 -140.659 2.70094e-005 -3.93145e-006 3.00006 -8.02896 -4.95146 -0.697707 177.921 4.11841 -1.17978 180 7.0156e-015 178.979 179.447 5.57119 179.846 -4.37229e-006 4.08516e-006 0.0195579 -18.3731 67.4953 19.1349 8.1365 25.2327 -3.48774 -172.335 1.85686 -1.981 4.54188e-006 -4.6773e-006 -1.09455 -2.07821 -8.12279 0.0987104 5.06894e-006 -2.58803e-006 -0.100776 18.7677 68.1393 -19.6439 -8.1365 25.2327 3.48774 
52.6312 91.6531 5.06434 -1.76855 -0.0367508 -0.115806 0.274638 -1.90192 0.38676 0.557543 0.200883 0.746878 0.548815 1.84585 0.737777 -13.1906 20.2085 3.92598 12.523 -3.60864 0.701482 44.676 4.52885 5.59285 90.4274 70.7733 5.08907 -4.59972e-007 -3.53166e-007 -7.5431e-006 6.24022 48.7514 -4.41354 3.19413e-006 -3.35533e-006 -3.00127 8.0289 -4.95155 0.697716 -53.3157 -14.2261 9.22296 -113.771 21.7749 27.7449 4.91522e-006 1.65825e-006 2.7095e-006 151.247 79.8915 -141.045 2.70094e-005 -3.93145e-006 3.00006 -8.02896 -4.95146 -0.697707 177.896 4.1553 -1.16347 180 7.0156e-015 178.979 179.437 5.57258 179.847 -4.37229e-006 4.08516e-006 0.0194981 -18.3722 67.4945 19.133 8.1365 25.2327 -3.48774 -172.359 1.83172 -1.97833 4.54188e-006 -4.6773e-006 -1.09546 -2.09021 -8.14213 0.0986015 5.06894e-006 -2.58803e-006 -0.100705 18.7754 68.1479 -19.6519 -8.1365 25.2327 3.48774 
52.6518 91.6496 5.06911 -1.77042 -0.0354436 -0.288931 0.264107 -1.90394 0.374828 0.536283 0.196722 0.72405 0.527819 1.8417 0.715297 -12.5171 20.255 3.79828 11.9033 -3.60003 0.736636 45.1212 4.4248 5.41517 90.5646 70.5063 4.55496 -4.59972e-007 -3.53166e-007 -7.5431e-006 6.37684 49.3976 -4.52784 3.19413e-006 -3.35533e-006 -3.00126 8.0289 -4.95155 0.697716 -52.7831 -14.2942 9.29822 -114.388 22.7394 27.7914 4.91522e-006 1.65825e-006 2.7095e-006 151.254 80.3776 -141.409 2.70094e-005 -3.93145e-006 3.00006 -8.02896 -4.95146 -0.697707 177.874 4.19035 -1.14862 180 7.01559e-015 178.979 179.427 5.57392 179.848 -4.37229e-006 4.08516e-006 0.0194389 -18.3713 67.4937 19.1311 8.1365 25.2327 -3.48774 -172.381 1.80517 -1.97708 4.54188e-006 -4.6773e-006 -1.09636 -2.10263 -8.16158 0.0984494 5.06894e-006 -2.58803e-006 -0.10067 18.7832 68.1566 -19.6601 -8.1365 25.2327 3.48774 
52.6812 91.6444 5.05443 -1.77316 -0.0364597 -0.462045 0.254364 -1.9055 0.363033 0.516596 0.193475 0.701414 0.508396 1.83846 0.692984 -11.8613 20.3009 3.67521 11.298 -3.59129 0.771975 45.5526 4.32108 5.24125 90.7036 70.2283 4.02708 -4.59972e-007 -3.53166e-007 -7.5431e-006 6.50675 50.0462 -4.64012 3.19413e-006 -3.35533e-006 -3.00125 8.0289 -4.95155 0.697716 -52.2656 -14.3544 9.36687 -114.993 23.7056 27.8265 4.91522e-006 1.65825e-006 2.7095e-006 151.209 80.8803 -141.725 2.70094e-005 -3.93145e-006 3.00006 -8.02896 -4.95146 -0.697707 177.854 4.22262 -1.13549 180 7.01559e-015 178.979 179.419 5.57524 179.848 -4.37229e-006 4.08516e-006 0.0193802 -18.3705 67.493 19.1294 8.1365 25.2327 -3.48774 -172.4 1.77576 -1.9775 4.54188e-006 -4.6773e-006 -1.09726 -2.11571 -8.18035 0.098207 5.06894e-006 -2.58803e-006 -0.100666 18.7909 68.1652 -19.668 -8.1365 25.2327 3.48774 
52.7035 91.6487 5.05117 -1.77659 -0.0406643 -0.635473 0.245677 -1.90646 0.351451 0.499017 0.191455 0.679099 0.491077 1.83645 0.670956 -11.2322 20.3466 3.55945 10.7139 -3.58309 0.807795 45.9652 4.21846 5.07278 90.848 69.9378 3.50569 -4.59972e-007 -3.53166e-007 -7.5431e-006 6.62827 50.6977 -4.74931 3.19413e-006 -3.35533e-006 -3.00124 8.0289 -4.95155 0.697716 -51.7702 -14.4045 9.42672 -115.576 24.6715 27.8487 4.91522e-006 1.65825e-006 2.7095e-006 151.083 81.4006 -141.961 2.70094e-005 -3.93145e-006 3.00006 -8.02896 -4.95146 -0.697707 177.837 4.25118 -1.12434 180 7.01559e-015 178.979 179.412 5.57646 179.849 -4.37229e-006 4.08516e-006 0.0193223 -18.3697 67.4924 19.1278 8.1365 25.2327 -3.48774 -172.418 1.74201 -1.97982 4.54188e-006 -4.6773e-006 -1.09819 -2.12965 -8.19764 0.0978272 5.06894e-006 -2.58803e-006 -0.100689 18.7981 68.1732 -19.6755 -8.1365 25.2327 3.48774 
